#!OML:ASF I:\Actors\actors\Patient Classification 2\Patient 1\Session 1\actor1.ASF
:FULLY-SPECIFIED
:DEGREES
742
root -0.0211009 18.4796 6.59929 -3.06659 -10.6477 -6.10415
lowerback 9.87809 1.90851 0.968239
upperback 5.31483 2.66286 6.78014
thorax -0.275535 1.25727 6.27514
lowerneck -7.60501 -7.01151 -1.89375
upperneck 20.6171 -16.4851 28.9993
head 10.9298 -5.40323 8.95975
rclavicle -3.18055e-015 -7.95139e-015
rhumerus -43.4541 -16.9304 -64.3668
rradius 50.0101
rwrist -5.0717
rhand -6.58246 -35.9644
rfingers 7.12502
rthumb 19.2724 -65.0295
lclavicle -3.18055e-015 -7.95139e-015
lhumerus -78.2735 -34.7829 113.395
lradius 89.7504
lwrist -3.36381
lhand -2.32127 -60.3819
lfingers 7.12502
lthumb 23.3652 -31.7801
rfemur 0 0 0
rtibia 0
rfoot 0 0
rtoes 0
lfemur 1.11209 -0.659608 -11.7159
ltibia 28.5241
lfoot -27.8266 13.428
ltoes -54.3528
743
root -0.0282127 18.4758 6.62005 -3.24036 -10.319 -6.07321
lowerback 9.81105 1.84948 1.14757
upperback 5.26319 2.60008 6.75994
thorax -0.277847 1.23024 6.15793
lowerneck -7.65903 -7.01146 -2.03751
upperneck 20.3967 -16.463 29.2441
head 10.8985 -5.40072 9.0769
rclavicle -9.54166e-015 8.42847e-014
rhumerus -44.6497 -17.3188 -64.021
rradius 49.2083
rwrist -4.06967
rhand -6.65389 -35.6794
rfingers 7.12502
rthumb 19.2037 -64.7513
lclavicle -9.54166e-015 8.42847e-014
lhumerus -78.4324 -34.8019 113.431
lradius 89.7096
lwrist -3.23743
lhand -2.2992 -60.4154
lfingers 7.12502
lthumb 23.3864 -31.8163
rfemur 0 0 0
rtibia 0
rfoot 0 0
rtoes 0
lfemur 1.34149 -0.775458 -11.7136
ltibia 28.4286
lfoot -27.6981 13.2778
ltoes -54.4416
744
root -0.0366525 18.472 6.64117 -3.39462 -10.0349 -6.09442
lowerback 9.73256 1.81186 1.3661
upperback 5.21197 2.56823 6.74927
thorax -0.275489 1.21916 6.02554
lowerneck -7.7579 -7.00519 -1.88744
upperneck 20.0814 -16.3678 29.2029
head 10.7616 -5.36487 9.01178
rclavicle -3.37934e-014 -3.02153e-014
rhumerus -45.846 -17.7394 -63.6139
rradius 48.5109
rwrist -3.15264
rhand -6.43488 -35.424
rfingers 7.12502
rthumb 19.4143 -64.4748
lclavicle -3.37934e-014 -3.02153e-014
lhumerus -78.5759 -34.8011 113.467
lradius 89.6368
lwrist -3.13984
lhand -2.40237 -60.5357
lfingers 7.12502
lthumb 23.2874 -31.9241
rfemur 0 0 0
rtibia 0
rfoot 0 0
rtoes 0
lfemur 1.57038 -0.936201 -11.668
ltibia 28.3394
lfoot -27.6334 13.1278
ltoes -54.4454
745
root -0.0462895 18.4701 6.66071 -3.52816 -9.71681 -6.05754
lowerback 9.60646 1.75972 1.44542
upperback 5.2043 2.50037 6.7608
thorax -0.204985 1.18633 6.00272
lowerneck -7.96994 -6.97173 -1.7293
upperneck 19.7467 -16.2233 29.1085
head 10.6249 -5.30283 8.92492
rclavicle 2.42517e-014 9.22361e-014
rhumerus -46.9368 -18.1682 -63.1875
rradius 47.9497
rwrist -2.11331
rhand -5.84021 -35.2456
rfingers 7.12502
rthumb 19.986 -64.2378
lclavicle 2.42517e-014 9.22361e-014
lhumerus -78.5287 -34.7668 113.448
lradius 89.5521
lwrist -3.00921
lhand -2.4768 -60.5525
lfingers 7.12502
lthumb 23.216 -31.9318
rfemur 0 0 0
rtibia 0
rfoot 0 0
rtoes 0
lfemur 1.74279 -1.13305 -11.68
ltibia 28.2673
lfoot -27.6069 12.9342
ltoes -54.4151
746
root -0.0554587 18.4669 6.67916 -3.65634 -9.37451 -6.00653
lowerback 9.46294 1.67736 1.48279
upperback 5.19987 2.38759 6.77824
thorax -0.119286 1.12995 6.01513
lowerneck -8.21763 -6.9189 -1.76998
upperneck 19.5094 -16.1093 29.2068
head 10.5819 -5.24636 8.96412
rclavicle 7.35503e-015 -2.70347e-014
rhumerus -47.9277 -18.5241 -62.8423
rradius 47.4384
rwrist -1.15669
rhand -5.36876 -35.1216
rfingers 7.12502
rthumb 20.4391 -64.0659
lclavicle 7.35503e-015 -2.70347e-014
lhumerus -78.4075 -34.6631 113.376
lradius 89.4575
lwrist -2.85172
lhand -2.38393 -60.4431
lfingers 7.12502
lthumb 23.3051 -31.8337
rfemur 0 0 0
rtibia 0
rfoot 0 0
rtoes 0
lfemur 1.88897 -1.2933 -11.6915
ltibia 28.2034
lfoot -27.5286 12.7181
ltoes -54.4332
747
root -0.062238 18.4619 6.70088 -3.77002 -9.10984 -5.98803
lowerback 9.27929 1.59998 1.58798
upperback 5.18164 2.28503 6.8004
thorax -0.0245035 1.0799 5.99293
lowerneck -8.41339 -6.86763 -1.70205
upperneck 19.2529 -15.9551 29.1253
head 10.4794 -5.18177 8.91017
rclavicle -1.78906e-014 -3.97569e-014
rhumerus -48.8251 -18.7723 -62.5511
rradius 46.8915
rwrist -0.523622
rhand -5.26102 -34.94
rfingers 7.12502
rthumb 20.5426 -63.8731
lclavicle -1.78906e-014 -3.97569e-014
lhumerus -78.4156 -34.5029 113.355
lradius 89.418
lwrist -2.69975
lhand -2.29446 -60.3283
lfingers 7.12502
lthumb 23.3909 -31.7298
rfemur 0 0 0
rtibia 0
rfoot 0 0
rtoes 0
lfemur 2.06216 -1.45252 -11.6982
ltibia 28.1335
lfoot -27.4894 12.6097
ltoes -54.5123
748
root -0.0690822 18.457 6.7247 -3.93136 -8.89969 -5.95257
lowerback 9.11136 1.55106 1.67982
upperback 5.17308 2.21899 6.82014
thorax 0.0677707 1.04796 5.97163
lowerneck -8.61615 -6.81874 -1.87078
upperneck 19.0085 -15.8317 29.2669
head 10.4378 -5.13246 8.99487
rclavicle -3.49861e-014 7.95139e-015
rhumerus -49.6883 -18.9421 -62.3119
rradius 46.4544
rwrist 0.0474334
rhand -5.08124 -34.9784
rfingers 7.12502
rthumb 20.7154 -63.8928
lclavicle -3.49861e-014 7.95139e-015
lhumerus -78.4946 -34.3684 113.394
lradius 89.4415
lwrist -2.56483
lhand -2.31841 -60.2616
lfingers 7.12502
lthumb 23.368 -31.6601
rfemur 0 0 0
rtibia 0
rfoot 0 0
rtoes 0
lfemur 2.31085 -1.62694 -11.7432
ltibia 28.062
lfoot -27.5259 12.5574
ltoes -54.6159
749
root -0.0799845 18.4521 6.74346 -4.18129 -8.65624 -5.91922
lowerback 9.09609 1.50973 1.75134
upperback 5.16084 2.17004 6.81449
thorax 0.0707076 1.02523 5.92945
lowerneck -8.7434 -6.77853 -2.02774
upperneck 18.7242 -15.7278 29.501
head 10.3812 -5.09448 9.11372
rclavicle -2.80286e-014 -2.70347e-014
rhumerus -50.5722 -19.0841 -62.2154
rradius 46.0848
rwrist 0.375574
rhand -5.20346 -34.789
rfingers 7.12502
rthumb 20.5979 -63.7161
lclavicle -2.80286e-014 -2.70347e-014
lhumerus -78.5493 -34.2888 113.397
lradius 89.4262
lwrist -2.50402
lhand -2.32211 -60.2272
lfingers 7.12502
lthumb 23.3644 -31.6253
rfemur 0 0 0
rtibia 0
rfoot 0 0
rtoes 0
lfemur 2.62927 -1.67742 -11.7194
ltibia 27.988
lfoot -27.4797 12.3403
ltoes -54.721
750
root -0.0921701 18.4481 6.7594 -4.38574 -8.39621 -5.94155
lowerback 9.05811 1.45641 1.85959
upperback 5.15041 2.10637 6.81106
thorax 0.0904824 0.995603 5.87055
lowerneck -8.72721 -6.71284 -2.08594
upperneck 18.3071 -15.5151 29.6227
head 10.1993 -5.03164 9.17262
rclavicle 2.18663e-015 -5.40694e-014
rhumerus -51.3457 -19.1396 -62.2607
rradius 45.7177
rwrist 0.463253
rhand -5.65426 -34.4635
rfingers 7.12502
rthumb 20.1647 -63.437
lclavicle 2.18663e-015 -5.40694e-014
lhumerus -78.5875 -34.2399 113.342
lradius 89.4115
lwrist -2.47866
lhand -2.15518 -60.1839
lfingers 7.12502
lthumb 23.5245 -31.6025
rfemur 0 0 0
rtibia 0
rfoot 0 0
rtoes 0
lfemur 2.88881 -1.64217 -11.5937
ltibia 27.9058
lfoot -27.3753 12.0672
ltoes -54.8153
751
root -0.101685 18.4443 6.77577 -4.53705 -8.14648 -5.94544
lowerback 8.97379 1.39876 1.97685
upperback 5.12159 2.03592 6.79025
thorax 0.117741 0.963132 5.78908
lowerneck -8.78724 -6.67217 -1.81793
upperneck 17.9674 -15.345 29.439
head 10.0094 -4.97116 9.03646
rclavicle 4.77083e-015 -2.8625e-014
rhumerus -52.0555 -19.0962 -62.3704
rradius 45.4739
rwrist 0.728074
rhand -5.83324 -34.3874
rfingers 7.12502
rthumb 19.9927 -63.3789
lclavicle 4.77083e-015 -2.8625e-014
lhumerus -78.6343 -34.1738 113.256
lradius 89.4015
lwrist -2.44748
lhand -2.03885 -60.2538
lfingers 7.12502
lthumb 23.6361 -31.6867
rfemur 0 0 0
rtibia 0
rfoot 0 0
rtoes 0
lfemur 3.0906 -1.66404 -11.5209
ltibia 27.8288
lfoot -27.3204 11.919
ltoes -54.9558
752
root -0.110426 18.4394 6.79132 -4.69902 -7.88569 -5.88456
lowerback 8.93832 1.35558 2.05368
upperback 5.06677 1.98632 6.73257
thorax 0.0885874 0.941477 5.68776
lowerneck -8.98258 -6.68791 -1.61553
upperneck 17.7856 -15.312 29.2545
head 9.94034 -4.95271 8.90424
rclavicle -2.82274e-014 3.18055e-014
rhumerus -52.7391 -19.1218 -62.4987
rradius 45.3093
rwrist 1.0879
rhand -5.8171 -34.2685
rfingers 7.12502
rthumb 20.0082 -63.2584
lclavicle -2.82274e-014 3.18055e-014
lhumerus -78.7158 -34.142 113.216
lradius 89.3677
lwrist -2.38997
lhand -2.29591 -60.4108
lfingers 7.12502
lthumb 23.3895 -31.8121
rfemur 0 0 0
rtibia 0
rfoot 0 0
rtoes 0
lfemur 3.2865 -1.74107 -11.5403
ltibia 27.765
lfoot -27.304 11.8126
ltoes -55.1441
